<svg xmlns="http://www.w3.org/2000/svg" width="42.4" height="32.972" viewBox="0 0 42.4 32.972">
  <path id="Icon_awesome-home" data-name="Icon awesome-home" d="M20.637,10.807,7.066,21.984V34.047a1.178,1.178,0,0,0,1.178,1.178l8.248-.021a1.178,1.178,0,0,0,1.172-1.178V26.981A1.178,1.178,0,0,1,18.842,25.8h4.711a1.178,1.178,0,0,1,1.178,1.178v7.04A1.178,1.178,0,0,0,25.908,35.2l8.245.023a1.178,1.178,0,0,0,1.178-1.178V21.976L21.763,10.807A.9.9,0,0,0,20.637,10.807Zm21.436,7.6-6.153-5.072V3.137a.883.883,0,0,0-.883-.883H30.914a.883.883,0,0,0-.883.883V8.481l-6.59-5.422a3.533,3.533,0,0,0-4.49,0L.319,18.4A.883.883,0,0,0,.2,19.648L2.079,21.93a.883.883,0,0,0,1.245.12L20.637,7.789a.9.9,0,0,1,1.126,0L39.077,22.05a.883.883,0,0,0,1.244-.118L42.2,19.65a.883.883,0,0,0-.125-1.246Z" transform="translate(0.001 -2.254)" fill="#040301"/>
</svg>
