<svg xmlns="http://www.w3.org/2000/svg" width="22" height="20" viewBox="0 0 22 20">
  <path id="Icon_awesome-camera" data-name="Icon awesome-camera" d="M22,7.25V20.107a2.1,2.1,0,0,1-2.062,2.143H2.063A2.1,2.1,0,0,1,0,20.107V7.25A2.1,2.1,0,0,1,2.063,5.107H5.844l.529-1.469A2.064,2.064,0,0,1,8.3,2.25h5.393a2.064,2.064,0,0,1,1.929,1.388l.533,1.469h3.781A2.1,2.1,0,0,1,22,7.25Zm-5.844,6.429A5.264,5.264,0,0,0,11,8.321a5.264,5.264,0,0,0-5.156,5.357A5.264,5.264,0,0,0,11,19.036,5.264,5.264,0,0,0,16.156,13.679Zm-1.375,0A3.863,3.863,0,0,1,11,17.607,3.931,3.931,0,0,1,11,9.75,3.863,3.863,0,0,1,14.781,13.679Z" transform="translate(0 -2.25)" fill="#a91b0d"/>
</svg>
