<svg xmlns="http://www.w3.org/2000/svg" width="21.133" height="21.133" viewBox="0 0 21.133 21.133">
  <path id="Icon_awesome-smile" data-name="Icon awesome-smile" d="M10.567.563A10.567,10.567,0,1,0,21.133,11.129,10.565,10.565,0,0,0,10.567.563Zm3.409,7.158a1.363,1.363,0,1,1-1.363,1.363A1.362,1.362,0,0,1,13.975,7.721Zm-6.817,0A1.363,1.363,0,1,1,5.795,9.084,1.362,1.362,0,0,1,7.158,7.721Zm8.3,7.252a6.365,6.365,0,0,1-9.783,0A.682.682,0,0,1,6.723,14.1a5.006,5.006,0,0,0,7.686,0A.682.682,0,0,1,15.458,14.972Z" transform="translate(0 -0.563)" fill="#a91b0d"/>
</svg>
