<?xml version="1.0" encoding="utf-8"?>
<!-- Generator: Adobe Illustrator 26.2.1, SVG Export Plug-In . SVG Version: 6.00 Build 0)  -->
<svg version="1.1" id="Laag_1" xmlns="http://www.w3.org/2000/svg" xmlns:xlink="http://www.w3.org/1999/xlink" x="0px" y="0px"
	 viewBox="0 0 716.9 768" style="enable-background:new 0 0 716.9 768;" xml:space="preserve">
<style type="text/css">
	.st0{fill:#F4AC47;}
	.st1{fill:#FFFFFF;}
</style>
<g>
	<path class="st0" d="M336.3,30.9c10.3,0,20.9,0,31.3,0c1.3,0.6,2.5,1.9,4.1,1.9c51.9,5.9,92.9,30.3,125.1,71.6
		c3.4,4.4,10.9,7.2,16.9,7.5c87.2,6.9,157.9,69.1,170.1,150.1c13.4,89.4-31.9,167.6-117.3,200.4c-10,3.8-10.3,9.7-10.3,17.8
		c0,71.3-0.3,142.6,0.3,213.9c0.3,17.8-4.7,31.3-20,40.3c-122.9,0-246.1,0-369,0c-17.2-8.4-22.5-22.2-22.2-40.6
		c0.6-75.7,0.3-151,0.3-227c-6.9-2.8-13.1-5-19.1-7.8C48.3,426.4,3,341.4,19.5,259.1c16.9-84.1,82.9-140.7,171-147.6
		c5.6-0.3,12.5-4.1,16.3-8.4c20.6-26.3,46-47.2,77.2-58.8C300.6,38.1,318.8,35.3,336.3,30.9z M492.3,542.7c0-31.9,0-61.9,0-91.9
		s6.6-38.1,36.6-44.4c61-12.8,99.4-67.5,91.6-131c-7.2-57.5-61.3-101.6-121.9-97.2c-22.2,1.6-36.6-5-48.2-25.3
		c-43.1-75-153.2-76.6-197-2.5c-13.1,22.5-28.5,29.1-53.2,27.5c-65-4.1-119.8,49.4-119.8,114.8c0,55.3,38.1,102.2,92.9,113.8
		c30.6,6.6,36.6,14.1,36.6,46c0,25,0,50,0,75c0,5,0.6,10,0.9,15.3C305,542.7,397.6,542.7,492.3,542.7z M210.6,670
		c94.4,0,187.6,0,280.5,0c0-21.3,0-41.3,0-61.6c-94.1,0-187,0-280.5,0C210.6,629.7,210.6,649.7,210.6,670z"/>
	<path class="st1" d="M510.4,581.2c-105.4,0-207.9,0-312.4,0c-0.3-6.3-1.3-11.9-1.3-17.8c0-28.8,0-57.2,0-86
		c0-36.6-6.6-45-40.6-52.5C95.5,411.7,53,357.9,53,294.5c0-74.7,61-136.3,132.9-131.6c27.5,1.9,44.4-5.6,59.1-31.3
		c48.5-85,170.7-83.2,218.6,2.8c12.8,23.1,28.8,30.6,53.5,28.8c67.2-5,127.3,45.7,135.4,111.6c8.8,72.9-33.8,135.4-101.6,150.1
		c-33.1,7.2-40.3,16.3-40.3,51C510.4,510.2,510.4,544.9,510.4,581.2z"/>
	<path class="st1" d="M198.1,693.8c0-28.5,0-56,0-85.4c103.8,0,207,0,311.7,0c0,28.1,0,55.7,0,85.4
		C406.6,693.8,302.8,693.8,198.1,693.8z"/>
	<g>
		<g>
			<path class="st1" d="M155.5,284.8c47.8,41.6,80,98.8,92.2,160.7c3.4,17.2,5,35,4.7,52.5c0,12.2,18.8,12.2,18.8,0
				c0.3-66.9-22.8-133.2-63.8-186c-11.6-14.7-24.4-28.5-38.5-40.6c-3.8-3.4-9.4-3.8-13.1,0C152.1,274.8,151.8,281.3,155.5,284.8
				L155.5,284.8z"/>
		</g>
	</g>
	<g>
		<g>
			<path class="st1" d="M533.9,269.8c-50,43.5-84.7,104.7-96.9,169.8c-3.4,18.8-5.3,37.8-5.3,56.9c0,12.2,18.8,12.2,18.8,0
				c-0.3-62.5,21.3-124.8,59.7-174.2c10.9-14.4,23.8-27.2,37.2-39.1c3.8-3.4,3.4-10,0-13.1C543.6,266,538,266.3,533.9,269.8
				L533.9,269.8z"/>
		</g>
	</g>
	<g>
		<g>
			<path class="st1" d="M341.9,178.8c0.3,81.9,0.3,164.2,0.6,246.1c0,23.5,0,46.6,0.3,70c0,12.2,18.8,12.2,18.8,0
				c-0.3-81.9-0.3-164.2-0.6-246.1c0-23.5,0-46.6-0.3-70C360.7,166.6,341.9,166.6,341.9,178.8L341.9,178.8z"/>
		</g>
	</g>
</g>
</svg>
