<svg id="Group_537" data-name="Group 537" xmlns="http://www.w3.org/2000/svg" xmlns:xlink="http://www.w3.org/1999/xlink" width="30.081" height="31.6" viewBox="0 0 30.081 31.6">
  <defs>
    <clipPath id="clip-path">
      <rect id="Rectangle_369" data-name="Rectangle 369" width="30.081" height="31.6" fill="none"/>
    </clipPath>
  </defs>
  <g id="Group_505" data-name="Group 505" clip-path="url(#clip-path)">
    <path id="Path_239" data-name="Path 239" d="M14.385,0h1.4a.618.618,0,0,0,.181.088A8.015,8.015,0,0,1,21.583,3.3a1.15,1.15,0,0,0,.752.341,8.2,8.2,0,0,1,7.642,6.735,8.043,8.043,0,0,1-5.261,9c-.447.172-.458.434-.457.8.005,3.2-.017,6.4.017,9.606a1.868,1.868,0,0,1-.9,1.814H6.8a1.775,1.775,0,0,1-1-1.828c.03-3.392.012-6.784.012-10.195-.3-.122-.585-.23-.862-.346A8.125,8.125,0,0,1,7.827,3.638a1.136,1.136,0,0,0,.724-.386A8,8,0,0,1,12.025.607,21.558,21.558,0,0,1,14.385,0M21.4,22.987c0-1.427,0-2.782,0-4.136s.3-1.714,1.637-1.993A5.182,5.182,0,0,0,21.674,6.6a2.022,2.022,0,0,1-2.162-1.133,5.156,5.156,0,0,0-8.851-.106A2.237,2.237,0,0,1,8.272,6.595a5.142,5.142,0,0,0-5.383,5.16,5.2,5.2,0,0,0,4.173,5.109c1.372.289,1.641.626,1.642,2.058,0,1.124,0,2.247,0,3.371,0,.224.03.448.048.695ZM8.7,27.022h0Z" transform="translate(0)" fill="#e4e4e4"/>
    <path id="Path_240" data-name="Path 240" d="M39.408,45.7H26.54c-.018-.308-.047-.586-.048-.865,0-1.4,0-2.8,0-4.2,0-1.783-.275-2.2-1.671-2.563-2.5-.643-4.251-3.269-4.248-6.361,0-3.653,2.507-6.652,5.479-6.424a2.2,2.2,0,0,0,2.431-1.531c2-4.144,7.035-4.06,9.009.132a2,2,0,0,0,2.2,1.411c2.769-.242,5.25,2.221,5.574,5.444.356,3.55-1.395,6.611-4.188,7.322-1.364.347-1.665.8-1.666,2.481s0,3.372,0,5.149" transform="translate(-17.897 -20.253)" fill="#e4e4e4"/>
    <rect id="Rectangle_368" data-name="Rectangle 368" width="12.599" height="1.77" transform="translate(8.73 25.94)" fill="#fff"/>
    <path id="Path_241" data-name="Path 241" d="M43.884,76.8a12.8,12.8,0,0,1,4.136,7.223,12.16,12.16,0,0,1,.213,2.362.422.422,0,0,0,.843,0A13.609,13.609,0,0,0,46.2,78.031,12.878,12.878,0,0,0,44.48,76.2a.432.432,0,0,0-.6,0,.425.425,0,0,0,0,.6" transform="translate(-37.616 -65.399)" fill="#fff"/>
    <path id="Path_242" data-name="Path 242" d="M137.547,75.633a13.541,13.541,0,0,0-4.358,7.623,13.344,13.344,0,0,0-.238,2.558.422.422,0,0,0,.843,0,12.741,12.741,0,0,1,2.676-7.825,12.581,12.581,0,0,1,1.673-1.76.425.425,0,0,0,0-.6.43.43,0,0,0-.6,0" transform="translate(-114.278 -64.908)" fill="#fff"/>
    <path id="Path_243" data-name="Path 243" d="M104.212,44.808q.013,5.526.026,11.052,0,1.574.007,3.148a.422.422,0,0,0,.843,0l-.026-11.052-.008-3.148a.422.422,0,0,0-.843,0" transform="translate(-89.576 -38.165)" fill="#fff"/>
  </g>
</svg>
