<svg xmlns="http://www.w3.org/2000/svg" width="15.733" height="23" viewBox="0 0 15.733 23">
  <path id="Icon_awesome-microphone" data-name="Icon awesome-microphone" d="M7.867,15.813A4.3,4.3,0,0,0,12.158,11.5V4.313a4.291,4.291,0,1,0-8.582,0V11.5A4.3,4.3,0,0,0,7.867,15.813Zm7.152-7.187H14.3a.717.717,0,0,0-.715.719V11.5A5.739,5.739,0,0,1,7.3,17.222a5.915,5.915,0,0,1-5.15-5.978v-1.9a.717.717,0,0,0-.715-.719H.715A.717.717,0,0,0,0,9.344v1.8A8.142,8.142,0,0,0,6.794,19.31v1.534h-2.5a.717.717,0,0,0-.715.719v.719A.717.717,0,0,0,4.291,23h7.152a.717.717,0,0,0,.715-.719v-.719a.717.717,0,0,0-.715-.719h-2.5V19.327A7.9,7.9,0,0,0,15.733,11.5V9.344A.717.717,0,0,0,15.018,8.625Z" fill="#a91b0d"/>
</svg>
