<svg xmlns="http://www.w3.org/2000/svg" width="20.997" height="29.418" viewBox="0 0 20.997 29.418">
  <path id="Icon_awesome-euro-sign" data-name="Icon awesome-euro-sign" d="M20.4,27.319a.787.787,0,0,0-.947-.615,13.8,13.8,0,0,1-2.983.355A8.454,8.454,0,0,1,8.5,21.448h7.465a.788.788,0,0,0,.769-.615l.418-1.862a.788.788,0,0,0-.769-.961H7.566a14.176,14.176,0,0,1,.009-2.774H17.2a.788.788,0,0,0,.77-.62l.428-1.954a.788.788,0,0,0-.77-.956H8.549a8.247,8.247,0,0,1,7.724-4.927,12.862,12.862,0,0,1,2.486.272.788.788,0,0,0,.919-.566l.787-2.913a.787.787,0,0,0-.612-.98,19.123,19.123,0,0,0-3.46-.342A14.033,14.033,0,0,0,2.96,11.706H.788A.788.788,0,0,0,0,12.494v1.954a.788.788,0,0,0,.788.788H2.2a19.494,19.494,0,0,0-.012,2.774H.788A.788.788,0,0,0,0,18.8V20.66a.788.788,0,0,0,.788.788H2.765a13.756,13.756,0,0,0,13.627,10.22,16.379,16.379,0,0,0,4.012-.511.788.788,0,0,0,.577-.916L20.4,27.319Z" transform="translate(0 -2.25)" fill="#007d00"/>
</svg>
