<svg xmlns="http://www.w3.org/2000/svg" width="26.965" height="25.884" viewBox="0 0 26.965 25.884">
  <path id="Icon_awesome-star" data-name="Icon awesome-star" d="M12.566.829,9.524,7l-6.806.992a1.491,1.491,0,0,0-.825,2.544l4.924,4.8L5.653,22.109a1.49,1.49,0,0,0,2.162,1.57l6.089-3.2,6.089,3.2a1.491,1.491,0,0,0,2.162-1.57l-1.165-6.778,4.924-4.8a1.491,1.491,0,0,0-.825-2.544L18.282,7,15.24.829a1.492,1.492,0,0,0-2.674,0Z" transform="translate(-0.421 1.001)" fill="none" stroke="#f4ac47" stroke-width="2"/>
</svg>
