<svg xmlns="http://www.w3.org/2000/svg" width="37.45" height="26.156" viewBox="0 0 37.45 26.156">
  <path id="Icon_ionic-md-people" data-name="Icon ionic-md-people" d="M27.784,18.773a5.3,5.3,0,0,0,5.107-5.449,5.3,5.3,0,0,0-5.107-5.449,5.3,5.3,0,0,0-5.107,5.449A5.3,5.3,0,0,0,27.784,18.773Zm-13.618,0a5.3,5.3,0,0,0,5.107-5.449,5.3,5.3,0,0,0-5.107-5.449,5.3,5.3,0,0,0-5.107,5.449A5.3,5.3,0,0,0,14.166,18.773Zm0,4c-4,0-11.916,2.089-11.916,6.357v4.9H26.325v-4.9C26.325,24.858,18.166,22.769,14.166,22.769Zm13.618,1a8.371,8.371,0,0,0-1.459.091C28.283,25.4,29,26.4,29,29.126v4.9H39.7v-4.9C39.7,24.858,31.785,23.768,27.784,23.768Z" transform="translate(-2.25 -7.875)"/>
</svg>
