<svg xmlns="http://www.w3.org/2000/svg" xmlns:xlink="http://www.w3.org/1999/xlink" width="297.523" height="244.39" viewBox="0 0 297.523 244.39">
  <defs>
    <clipPath id="clip-path">
      <rect id="Rectangle_334" data-name="Rectangle 334" width="302.733" height="86.369" fill="#cd7b73"/>
    </clipPath>
  </defs>
  <g id="Group_538" data-name="Group 538" transform="matrix(0.819, -0.574, 0.574, 0.819, 0, 173.64)">
    <g id="Group_398" data-name="Group 398" transform="translate(0 0)" clip-path="url(#clip-path)">
      <path id="Path_202" data-name="Path 202" d="M258.067,85.9c-11.092-.131-21.81.231-32.9.1-14.208-.1-24.646-8.587-29.936-25.73-1.29-3.726-3.035-3.957-5.278-3.807q-88.051.374-176.1.754A27.08,27.08,0,0,1,8.109,56.9C3.361,55.829.064,50.5,0,44.269s3.359-12,7.958-13.167a18.8,18.8,0,0,1,5.359-.181q88.051-.383,176.1-.754c3.116-.037,5.1-1.552,6.543-5.8C201.535,9.1,211.163.144,224.006.505c23.175-.492,46.73-.492,70.291-.5,5.353-.181,8.008,3.284,8.188,8.637s-2.9,8.506-7.758,8.313c-19.567.081-39.14.168-57.828.368-1.371.262-2.243.143-3.614.411-3.608.411-6.313,4.057-6.506,8.917.181,5.359,2.455,8.325,6.443,8.406q4.674-.047,9.347-.1c17.324.062,35.146-.249,52.469-.187,3.988.087,6.873,1.8,7.434,7.652s-2.144,9.5-7.5,9.678c-12.463.131-24.434-.118-36.9.019-7.976-.168-16.451.05-24.428-.118-4.867-.193-7.565,3.446-7.384,8.805s2.835,8.818,8.194,8.637c18.695-.2,37.763.1,56.95-.48,1.751.231,3.116-.031,4.867.2,3.988.081,6.263,3.047,6.443,8.406S300.317,85.7,295.836,86c-7.983-.168-16.457.05-24.054.38-5.241-.692-9.727-.4-13.716-.48" transform="translate(0.004 -0.002)" fill="#cd7b73"/>
    </g>
  </g>
</svg>
