<svg xmlns="http://www.w3.org/2000/svg" width="86.333" height="86.333" viewBox="0 0 86.333 86.333">
  <g id="Group_15" data-name="Group 15" transform="translate(-574 -208)">
    <path id="Path_137" data-name="Path 137" d="M611.915,294.333h-2.59a1.225,1.225,0,0,0-.237-.067,18.51,18.51,0,0,1-4.522-.954,15.526,15.526,0,0,1-6.132-3.622q-8.7-8.695-17.392-17.394c-1.092-1.094-2.238-2.147-3.219-3.335a17.377,17.377,0,0,1-3.593-8.536c-.094-.589-.154-1.184-.229-1.776v-1.87c.066-.459.1-.926.2-1.375.368-1.523.749-3.044,1.154-4.558q2.862-10.716,5.747-21.427a31.566,31.566,0,0,1,1.3-4.138,17.285,17.285,0,0,1,5.168-6.58,14.461,14.461,0,0,1,5.354-2.925q11.643-3.148,23.3-6.253c1.722-.46,3.451-.9,5.182-1.321.448-.11.916-.137,1.375-.2h1.87a1.621,1.621,0,0,0,.275.066,18.5,18.5,0,0,1,4.81.962,15.576,15.576,0,0,1,6.2,3.647q7.553,7.551,15.105,15.1c1.687,1.687,3.423,3.329,5.04,5.08a16.819,16.819,0,0,1,3.954,8.487c.127.655.2,1.32.3,1.981v2.59c-.091.529-.145,1.067-.28,1.584q-1.24,4.74-2.512,9.471-2.026,7.579-4.064,15.155c-.4,1.466-.735,2.958-1.272,4.373a17.147,17.147,0,0,1-5.237,7.009,14.4,14.4,0,0,1-5.449,3.046q-10.584,2.876-21.184,5.692c-2.288.613-4.577,1.223-6.871,1.816C612.958,294.193,612.432,294.245,611.915,294.333Zm-2.538-36.322a7.131,7.131,0,0,0-5.074-3.227,15.925,15.925,0,0,0-6.524.355,8.06,8.06,0,0,0-5.626,4.921,12.24,12.24,0,0,0-.89,4.521q-.049,4.531,0,9.063a2.808,2.808,0,0,0,1.868,2.7,2.915,2.915,0,0,0,3.268-.588,3.059,3.059,0,0,0,.977-2.386q0-4.334,0-8.668a5.522,5.522,0,0,1,.452-2.307,3.7,3.7,0,0,1,5.823-1.059,4.305,4.305,0,0,1,.988,2.861c.024,3.081.014,6.162.019,9.243a3.063,3.063,0,1,0,6.124-.007c0-3.105-.029-6.211.011-9.315a3.589,3.589,0,0,1,3.577-3.764,3.164,3.164,0,0,1,3.453,2.553,6.931,6.931,0,0,1,.2,1.633c.019,2.961.008,5.923.009,8.884a3.07,3.07,0,1,0,6.136.024c-.011-1.307,0-2.613,0-3.92v-.24a1.16,1.16,0,0,1,.169.375,9.992,9.992,0,0,0,5.662,6.418,12.438,12.438,0,0,0,5.611,1,11.511,11.511,0,0,0,7.124-2.593,2.639,2.639,0,0,0,.99-2.687,2.923,2.923,0,0,0-5.184-1.294,4.533,4.533,0,0,1-.482.531,4.136,4.136,0,0,1-2.507.949,4.85,4.85,0,0,1-3.507-.872A4.465,4.465,0,0,1,630.4,267.6h.508q6.276,0,12.553,0a1.989,1.989,0,0,0,2.042-1.939,14.037,14.037,0,0,0-.572-4.615,9.151,9.151,0,0,0-5.778-6.2,12.338,12.338,0,0,0-6.87-.435,9.968,9.968,0,0,0-7.789,6.652c-.139.376-.249.763-.386,1.188-.032-.228-.056-.405-.082-.582s-.052-.379-.089-.567a7.6,7.6,0,0,0-3.7-5.427,8.212,8.212,0,0,0-3.851-1.022,8.111,8.111,0,0,0-5.05,1.331A7.461,7.461,0,0,0,609.377,258.012Zm-3.072-7.431a7.194,7.194,0,0,0,3.868,1.991,15.422,15.422,0,0,0,4.19.158,9.6,9.6,0,0,0,3.848-.937,1.961,1.961,0,0,1,1.922-.009,13.186,13.186,0,0,0,8.376.728,6.57,6.57,0,0,0,5.4-5.606,5.491,5.491,0,0,0-.662-4.085,6.758,6.758,0,0,0-2.5-2.172,32.548,32.548,0,0,0-5.192-2.08,13.677,13.677,0,0,1-1.9-.828,1.372,1.372,0,0,1-.714-1.49A1.465,1.465,0,0,1,624,234.89a5.291,5.291,0,0,1,1.627-.169,2.5,2.5,0,0,1,2.243,1.374,2.723,2.723,0,0,0,2.68,1.536,2.778,2.778,0,0,0,2.553-1.751,2.686,2.686,0,0,0-.448-3.018,6.821,6.821,0,0,0-2.33-1.83,12.466,12.466,0,0,0-9.069-.651,6.241,6.241,0,0,0-3.747,2.9,6.978,6.978,0,0,0-.889,3.619,5,5,0,0,0,1.1,3.308,5.825,5.825,0,0,0,2.226,1.668c1.556.648,3.147,1.212,4.719,1.825.724.282,1.445.574,2.145.907a1.46,1.46,0,0,1,.856,1.009,1.769,1.769,0,0,1-1.285,2.206,5.178,5.178,0,0,1-1.667.142,2.9,2.9,0,0,1-2.556-1.47,2.955,2.955,0,0,0-4.585-.758,5.078,5.078,0,0,1-3.369,1.4,2.931,2.931,0,0,1-3.36-3.069c-.041-2.073.008-4.147.016-6.221,0-.593,0-1.187,0-1.795,1.972.736,3.442.436,4.474-.886a3.432,3.432,0,0,0,.11-4.029,3.34,3.34,0,0,0-1.719-1.3,3.4,3.4,0,0,0-2.8.273c0-.942,0-1.838,0-2.735a1.876,1.876,0,0,0-1.989-1.979q-1.151,0-2.3,0a1.871,1.871,0,0,0-1.976,1.925q-.052,4.962-.072,9.926c-.013,2.242.009,4.485-.04,6.726a4.232,4.232,0,0,1-.392,1.655c-.859,1.831-3.708,1.862-4.979.871a3,3,0,0,1-1.108-2.54c.027-3.536.076-7.071.12-10.607a1.3,1.3,0,0,0-1.3-1.476q-1.852-.015-3.7,0a1.243,1.243,0,0,0-1.275,1.275q-.02,1.1-.032,2.193c-.031,3.344-.066,6.688-.088,10.033a6.678,6.678,0,0,0,1.48,4.51,7.685,7.685,0,0,0,4.006,2.4,13.791,13.791,0,0,0,4.915.448A5.977,5.977,0,0,0,606.3,250.581Zm-11.126-21.347a3.4,3.4,0,0,0,3.443-3.4,3.421,3.421,0,1,0-6.843.008A3.368,3.368,0,0,0,595.179,229.235Z" transform="translate(0 0)" fill="#f74311"/>
    <path id="Path_138" data-name="Path 138" d="M648.512,361.685a7.49,7.49,0,0,1,2-2.012,8.462,8.462,0,0,1,5.152-1.319,8.572,8.572,0,0,1,3.928,1.012,7.529,7.529,0,0,1,3.778,5.375c.039.186.062.374.091.561s.052.35.084.576c.14-.421.252-.8.394-1.176a10.087,10.087,0,0,1,7.945-6.588,12.945,12.945,0,0,1,7.008.43,9.175,9.175,0,0,1,5.894,6.141,13.523,13.523,0,0,1,.584,4.571,2,2,0,0,1-2.083,1.921q-6.4,0-12.8,0h-.518a4.371,4.371,0,0,0,1.667,3.484,5.062,5.062,0,0,0,3.578.864,4.3,4.3,0,0,0,2.557-.94,4.538,4.538,0,0,0,.491-.525,2.9,2.9,0,0,1,3.072-1.029,2.8,2.8,0,0,1,2.217,2.31,2.575,2.575,0,0,1-1.01,2.661,11.957,11.957,0,0,1-7.267,2.568,13.022,13.022,0,0,1-5.724-.989,10,10,0,0,1-5.776-6.356,1.142,1.142,0,0,0-.173-.371v.238c0,1.294-.009,2.589,0,3.883a3.13,3.13,0,0,1-6.26-.024c0-2.933.01-5.866-.01-8.8a6.625,6.625,0,0,0-.2-1.617,3.216,3.216,0,0,0-3.522-2.529,3.6,3.6,0,0,0-3.649,3.728c-.041,3.075-.011,6.15-.011,9.226a3.059,3.059,0,0,1-2.769,3.108,3.1,3.1,0,0,1-3.449-2.6,2.948,2.948,0,0,1-.03-.5c-.005-3.051,0-6.1-.02-9.154a4.183,4.183,0,0,0-1.008-2.833,3.831,3.831,0,0,0-5.94,1.049,5.325,5.325,0,0,0-.461,2.285q.005,4.292,0,8.584a2.984,2.984,0,0,1-1,2.363,3.039,3.039,0,0,1-3.333.582,2.785,2.785,0,0,1-1.905-2.674q-.041-4.487,0-8.976a11.8,11.8,0,0,1,.908-4.478,8.149,8.149,0,0,1,5.739-4.874,16.719,16.719,0,0,1,6.655-.351A7.3,7.3,0,0,1,648.512,361.685ZM678.925,367c-.036-.287-.056-.534-.1-.777a3.722,3.722,0,0,0-1.94-2.978,5,5,0,0,0-5.083.239A4.222,4.222,0,0,0,669.962,367Z" transform="translate(-39.145 -103.439)" fill="#fff"/>
    <path id="Path_139" data-name="Path 139" d="M646.6,290.072a6.112,6.112,0,0,1-4.207,2.194,14.163,14.163,0,0,1-5.016-.455,7.853,7.853,0,0,1-4.088-2.435,6.743,6.743,0,0,1-1.51-4.574c.022-3.392.058-6.783.09-10.175q.011-1.113.033-2.224a1.265,1.265,0,0,1,1.3-1.293q1.89-.018,3.781,0a1.317,1.317,0,0,1,1.327,1.5c-.044,3.586-.095,7.171-.122,10.757a3.031,3.031,0,0,0,1.131,2.576c1.3,1.005,4.2.974,5.081-.883a4.264,4.264,0,0,0,.4-1.679c.051-2.273.028-4.547.041-6.821.019-3.355.038-6.711.073-10.066a1.9,1.9,0,0,1,2.016-1.952q1.174-.005,2.349,0a1.909,1.909,0,0,1,2.029,2.007c0,.909,0,1.819,0,2.774a3.485,3.485,0,0,1,2.855-.277,3.408,3.408,0,0,1,1.754,1.316,3.462,3.462,0,0,1-.112,4.085c-1.053,1.341-2.553,1.645-4.566.9,0,.617,0,1.218,0,1.82-.008,2.1-.058,4.207-.017,6.309a2.984,2.984,0,0,0,3.428,3.113,5.2,5.2,0,0,0,3.439-1.42,3.027,3.027,0,0,1,4.679.769,2.961,2.961,0,0,0,2.609,1.49,5.314,5.314,0,0,0,1.7-.144,1.793,1.793,0,0,0,1.312-2.237,1.485,1.485,0,0,0-.874-1.023c-.715-.337-1.451-.634-2.189-.92-1.6-.622-3.227-1.194-4.815-1.851a5.944,5.944,0,0,1-2.272-1.691,5.054,5.054,0,0,1-1.12-3.355,7.044,7.044,0,0,1,.907-3.67,6.365,6.365,0,0,1,3.824-2.943,12.8,12.8,0,0,1,9.256.66,6.951,6.951,0,0,1,2.378,1.856,2.71,2.71,0,0,1,.457,3.061,2.835,2.835,0,0,1-2.605,1.776,2.782,2.782,0,0,1-2.735-1.558,2.555,2.555,0,0,0-2.289-1.393,5.428,5.428,0,0,0-1.66.171,1.487,1.487,0,0,0-1.08,1.381,1.389,1.389,0,0,0,.729,1.511,14.055,14.055,0,0,0,1.942.84,33.331,33.331,0,0,1,5.3,2.109,6.882,6.882,0,0,1,2.548,2.2,5.537,5.537,0,0,1,.675,4.142,6.681,6.681,0,0,1-5.507,5.686,13.534,13.534,0,0,1-8.547-.739,2.012,2.012,0,0,0-1.962.009,9.843,9.843,0,0,1-3.928.95,15.83,15.83,0,0,1-4.276-.16A7.359,7.359,0,0,1,646.6,290.072Z" transform="translate(-39.689 -39.159)" fill="#fff"/>
    <path id="Path_140" data-name="Path 140" d="M635,261.629a3.293,3.293,0,0,1-3.231-3.4,3.258,3.258,0,1,1,6.5-.008A3.325,3.325,0,0,1,635,261.629Z" transform="translate(-39.678 -32.124)" fill="#fff"/>
    <path id="Path_141" data-name="Path 141" d="M764.283,377.223H757.26a3.439,3.439,0,0,1,1.442-2.838,3.824,3.824,0,0,1,3.983-.193,3.01,3.01,0,0,1,1.52,2.4C764.24,376.791,764.255,376.991,764.283,377.223Z" transform="translate(-125.573 -114.171)" fill="#f74311"/>
  </g>
</svg>
