<svg xmlns="http://www.w3.org/2000/svg" xmlns:xlink="http://www.w3.org/1999/xlink" width="276.958" height="231.818" viewBox="0 0 276.958 231.818">
  <defs>
    <clipPath id="clip-path">
      <rect id="Rectangle_335" data-name="Rectangle 335" width="284.14" height="80.103" fill="#cd7b73"/>
    </clipPath>
  </defs>
  <g id="Group_540" data-name="Group 540" transform="matrix(-0.809, 0.588, -0.588, -0.809, 276.958, 64.805)">
    <g id="Group_400" data-name="Group 400" transform="translate(0 0)" clip-path="url(#clip-path)">
      <path id="Path_203" data-name="Path 203" d="M94.841,27.313c27.524.31,55.473.176,83.441.912,3.016.365,4.7-1.386,6.366-4C197.184,5.912,213.363-2.15,231.907.488c13.789,1.441,26.8,7.2,38.608,16.86l7.01,6.737c8.8,10.141,9.047,22.18-.638,32.266-12.622,14.008-28.855,19.492-44.694,22.824S202.474,76.761,190.18,64.1c-2.195-2.1-4.384-4.213-5.3-6.773-2.262-5.545-5.721-6.335-10.02-6.25-54.191-.632-107.943-.845-162.14-1.484C4.128,49.773-.256,45.559.012,37.382c-.158-7.734,4.493-11.7,12.671-11.43C40.224,27.119,67.317,27,94.841,27.313" transform="translate(0.001 -0.001)" fill="#cd7b73"/>
    </g>
  </g>
</svg>
