<svg xmlns="http://www.w3.org/2000/svg" width="195" height="195" viewBox="0 0 195 195">
  <path id="Icon_awesome-check-circle" data-name="Icon awesome-check-circle" d="M195.563,98.062a97.5,97.5,0,1,1-97.5-97.5A97.5,97.5,0,0,1,195.563,98.062ZM86.785,149.688l72.339-72.339a6.29,6.29,0,0,0,0-8.9l-8.9-8.9a6.29,6.29,0,0,0-8.9,0L82.337,118.552,54.793,91.009a6.291,6.291,0,0,0-8.9,0L37,99.9a6.29,6.29,0,0,0,0,8.9l40.887,40.887a6.291,6.291,0,0,0,8.9,0Z" transform="translate(-0.563 -0.563)" fill="#007d00"/>
</svg>
